<?xml version="1.0" encoding="UTF-8"?>
<svg version="1.1" xmlns="http://www.w3.org/2000/svg" width="512" height="512">
<path d="M0 0 C0.98106468 -0.0098568 0.98106468 -0.0098568 1.98194885 -0.01991272 C4.14446128 -0.03960819 6.30690437 -0.05129986 8.46948242 -0.0612793 C9.20945654 -0.06535482 9.94943066 -0.06943035 10.71182823 -0.07362938 C14.62852065 -0.09447415 18.5451782 -0.10878271 22.46191406 -0.11816406 C26.5004589 -0.12922523 30.53845226 -0.16362564 34.57680225 -0.20333576 C37.68842063 -0.22952092 40.79990795 -0.23785754 43.91162682 -0.24144554 C45.39993705 -0.24630664 46.88824162 -0.25790718 48.37644386 -0.27648354 C50.46364291 -0.30091744 52.54941952 -0.2999034 54.63671875 -0.29296875 C55.82235916 -0.29883499 57.00799957 -0.30470123 58.22956848 -0.31074524 C62.25784214 0.2877468 64.38544216 1.6006632 67.51245117 4.17700195 C69.38454225 7.16689043 69.76175714 9.43350183 69.75854683 12.93273544 C69.76252893 13.89166663 69.76651102 14.85059782 69.77061379 15.83858752 C69.76478811 16.88916504 69.75896242 17.93974256 69.75296021 19.02215576 C69.75552348 20.699497 69.75552348 20.699497 69.75813854 22.41072392 C69.76144215 26.1710972 69.75041524 29.93129345 69.73950195 33.69165039 C69.73893803 36.38186547 69.73916589 39.07206959 69.74038696 41.76228333 C69.74143605 47.56101069 69.73515697 53.35969307 69.72391129 59.15840912 C69.70766246 67.54238924 69.70244891 75.92634759 69.6999353 84.31034175 C69.69555723 97.91255462 69.68224508 111.51474351 69.66333008 125.11694336 C69.64497419 138.33080933 69.63081626 151.54466878 69.62231445 164.75854492 C69.62178901 165.57294382 69.62126356 166.38734272 69.62072219 167.22642037 C69.61811213 171.31198925 69.61558471 175.39755817 69.61309838 179.48312712 C69.59236238 213.38110278 69.55713379 247.27904943 69.51245117 281.17700195 C70.4201123 281.1612915 71.32777344 281.14558105 72.26293945 281.12939453 C75.65118189 281.07807065 79.03900736 281.04055779 82.42749023 281.01220703 C83.89012192 280.99717999 85.35270899 280.9767524 86.81518555 280.95068359 C88.92532397 280.91402928 91.03486343 280.89721519 93.14526367 280.8840332 C94.41257324 280.86832275 95.67988281 280.8526123 96.9855957 280.83642578 C100.86190074 281.21074708 103.22540681 282.11785569 106.51245117 284.17700195 C109.47722035 288.62415572 108.88071674 292.81935181 108.88745117 298.05200195 C108.91194336 299.04586914 108.93643555 300.03973633 108.96166992 301.0637207 C108.99108134 308.38716369 108.99108134 308.38716369 106.61401367 312.30981445 C102.76799578 315.72690841 99.39184518 315.32039944 94.47163677 315.31122303 C93.62664022 315.31357526 92.78164367 315.31592749 91.91104117 315.318351 C89.04856621 315.32506587 86.18613638 315.32458203 83.32365417 315.32417297 C81.26309064 315.32747004 79.20252775 315.33119528 77.14196569 315.33531445 C71.45534958 315.34536028 65.76874403 315.34905538 60.0821203 315.35170376 C53.95861699 315.35559914 47.8351221 315.36517793 41.71162415 315.37391663 C27.6118473 315.3927665 13.51207239 315.40293991 -0.58771351 315.41137731 C-7.55199617 315.41558132 -14.51627797 315.42080361 -21.4805599 315.42606184 C-45.30985957 315.4439527 -69.13915947 315.45895002 -92.96846485 315.46638203 C-94.46490685 315.46685679 -95.96134884 315.46733268 -97.45779083 315.46780969 C-98.19990689 315.46804606 -98.94202296 315.46828244 -99.70662738 315.46852598 C-103.46669039 315.4697272 -107.2267534 315.47094265 -110.98681641 315.47216797 C-112.10611907 315.47252819 -112.10611907 315.47252819 -113.24803392 315.4728957 C-137.45064709 315.48079152 -161.6532113 315.50422884 -185.85580308 315.53672391 C-211.43119364 315.5709996 -237.00655553 315.59073103 -262.58196944 315.59402627 C-265.38799172 315.59444382 -268.19401398 315.59492339 -271.00003624 315.59544945 C-271.69098136 315.59557264 -272.38192649 315.59569583 -273.09380934 315.59582276 C-284.22655953 315.59815753 -295.35925297 315.61383284 -306.49198292 315.63429129 C-317.67599199 315.65451838 -328.85993371 315.6597072 -340.04396395 315.65052066 C-346.10628988 315.64595895 -352.16843106 315.64797044 -358.23073196 315.6672821 C-363.77550372 315.68479326 -369.31995429 315.6840147 -374.86472889 315.66838481 C-376.87551579 315.66599032 -378.88632424 315.67042656 -380.89707801 315.68221346 C-383.62151825 315.6972005 -386.34480088 315.68775192 -389.06921101 315.67198658 C-389.85767696 315.68220879 -390.64614292 315.69243099 -391.45850179 315.70296296 C-395.181712 315.65564235 -397.28799755 315.30533444 -400.45119494 313.27106541 C-404.65510133 308.94802176 -403.78193601 304.10633284 -403.86254883 298.36450195 C-403.89993164 297.36612305 -403.93731445 296.36774414 -403.97583008 295.33911133 C-404.06442078 287.95163101 -404.06442078 287.95163101 -401.15161133 284.0402832 C-396.82537538 281.01445542 -393.5835886 281.05824261 -388.41333008 281.0793457 C-387.38758125 281.08146812 -387.38758125 281.08146812 -386.34111023 281.08363342 C-384.16071161 281.08922319 -381.98041632 281.10177374 -379.80004883 281.11450195 C-378.3202326 281.11951828 -376.84041477 281.12408096 -375.3605957 281.12817383 C-371.73621326 281.13918924 -368.11189113 281.15644683 -364.48754883 281.17700195 C-364.49031421 280.56831677 -364.49307959 279.9596316 -364.49592876 279.33250141 C-364.56219784 264.51804766 -364.6118339 249.70360823 -364.64298534 234.88904285 C-364.6584506 227.72480253 -364.67953348 220.56066117 -364.71386719 213.39648438 C-364.74378013 207.1517776 -364.76312632 200.90714252 -364.76981431 194.66236609 C-364.77372342 191.35613087 -364.78447864 188.0501484 -364.804739 184.74396706 C-364.82646678 181.05200588 -364.82951762 177.36047169 -364.828125 173.66845703 C-364.83891083 172.57369553 -364.84969666 171.47893402 -364.86080933 170.35099792 C-364.82191507 160.84284775 -364.82191507 160.84284775 -361.48754883 157.17700195 C-357.61586777 154.12276266 -354.6192631 153.79863785 -349.75708008 153.78881836 C-348.77316788 153.78093292 -348.77316788 153.78093292 -347.76937866 153.77288818 C-345.6126893 153.75974206 -343.45674499 153.7684064 -341.30004883 153.77856445 C-339.79459492 153.77654215 -338.28914197 153.77362941 -336.78369141 153.76986694 C-333.63312424 153.76545092 -330.48281276 153.77185116 -327.33227539 153.78588867 C-323.30045722 153.80298041 -319.26923822 153.79313532 -315.23744202 153.77517128 C-312.13012199 153.76431378 -309.02294325 153.76778874 -305.9156189 153.77555466 C-304.42931039 153.77755124 -302.94298892 153.77511645 -301.45669556 153.768116 C-299.3767922 153.76046875 -297.29784965 153.77214981 -295.21801758 153.78881836 C-293.44527466 153.79239853 -293.44527466 153.79239853 -291.63671875 153.79605103 C-287.31236454 154.31916245 -284.77616038 155.74996064 -281.86841869 158.97006798 C-280.21229777 161.61691372 -280.11704737 163.11053718 -280.12678528 166.21368408 C-280.12266129 167.22888123 -280.11853729 168.24407837 -280.11428833 169.29003906 C-280.12507416 170.39774658 -280.13585999 171.5054541 -280.14697266 172.64672852 C-280.14631554 174.40324738 -280.14631554 174.40324738 -280.14564514 176.19525146 C-280.14773675 180.06954566 -280.17108621 183.94340825 -280.19458008 187.81762695 C-280.2018402 190.50233723 -280.20459299 193.18704703 -280.20744324 195.87176514 C-280.2167649 202.21824775 -280.24138022 208.56457521 -280.27149171 214.91098952 C-280.30503202 222.13704137 -280.32152078 229.36310066 -280.33657801 236.58921099 C-280.36792978 251.45190487 -280.42294327 266.31441086 -280.48754883 281.17700195 C-269.59754883 281.17700195 -258.70754883 281.17700195 -247.48754883 281.17700195 C-247.51373291 276.05861816 -247.53991699 270.94023437 -247.56689453 265.66674805 C-247.64966037 248.77526192 -247.70519405 231.88376793 -247.74660969 214.99213219 C-247.77239301 204.74847454 -247.80754606 194.50500897 -247.86474609 184.26147461 C-247.91457705 175.33336021 -247.94683891 166.4053849 -247.9579913 157.4771353 C-247.96451058 152.7494781 -247.97983537 148.02221885 -248.01619911 143.29468918 C-248.05015374 138.8442758 -248.06060291 134.39442404 -248.05308723 129.94389343 C-248.05446203 128.31124952 -248.06439801 126.67858669 -248.0835762 125.04605484 C-248.10850802 122.81414493 -248.10245618 120.58434668 -248.08882141 118.35238647 C-248.09573486 116.48022492 -248.09573486 116.48022492 -248.10278797 114.57024193 C-247.27888929 110.02617811 -245.75672815 108.40191403 -242.48754883 105.17700195 C-239.146168 104.06320834 -236.61310427 104.03649868 -233.09179688 104.01586914 C-232.12536255 104.00842178 -232.12536255 104.00842178 -231.1394043 104.00082397 C-229.00934782 103.98622772 -226.87936584 103.97940418 -224.74926758 103.97387695 C-223.26577249 103.96812286 -221.78227741 103.96236515 -220.29878235 103.956604 C-217.18762873 103.94610085 -214.07650089 103.94025389 -210.96533203 103.93676758 C-206.9874199 103.93128808 -203.00985096 103.90726913 -199.03204632 103.87879562 C-195.9667513 103.86012925 -192.90153823 103.8549615 -189.83619118 103.8534317 C-188.37022846 103.85041302 -186.90426693 103.84241102 -185.43836021 103.82924652 C-183.38247304 103.81210351 -181.32741492 103.81408584 -179.27148438 103.82055664 C-178.10360886 103.81691101 -176.93573334 103.81326538 -175.73246765 103.80950928 C-171.97258768 104.2353222 -169.66100596 105.12120857 -166.48754883 107.17700195 C-163.43466635 111.19772297 -163.11568075 114.20823294 -163.12678528 119.19416809 C-163.124222 119.88856056 -163.12165873 120.58295304 -163.11901778 121.29838771 C-163.11408745 123.61859708 -163.13055972 125.93815164 -163.14697266 128.25830078 C-163.14781909 129.92404159 -163.14734346 131.58978352 -163.14564514 133.25552368 C-163.14478441 137.77377669 -163.16242275 142.29179077 -163.18336701 146.80998826 C-163.20212085 151.53319986 -163.20388324 156.25641694 -163.20744324 160.97966003 C-163.2167675 169.92207809 -163.24138646 178.86438612 -163.27149171 187.80675572 C-163.30502383 197.98804092 -163.32151874 208.16933138 -163.33657801 218.35065806 C-163.36793568 239.29284774 -163.42295254 260.2348866 -163.48754883 281.17700195 C-152.92754883 281.17700195 -142.36754883 281.17700195 -131.48754883 281.17700195 C-131.49754158 276.85267815 -131.49754158 276.85267815 -131.50773621 272.44099426 C-131.56742152 246.01008711 -131.61221409 219.57918324 -131.64074482 193.14822416 C-131.64449698 189.68475348 -131.64837994 186.22128295 -131.65234375 182.7578125 C-131.65313068 182.06829204 -131.65391761 181.37877158 -131.65472839 180.66835656 C-131.66778564 169.50078535 -131.69144122 158.33326043 -131.71900722 147.16571669 C-131.74705258 135.70849605 -131.76349865 124.251313 -131.76981431 112.79405707 C-131.7737307 106.35796198 -131.78295713 99.9219719 -131.804739 93.48591042 C-131.82506538 87.43099233 -131.83139038 81.37622276 -131.82687187 75.3212738 C-131.82769879 73.09642417 -131.83368721 70.87156968 -131.84516525 68.6467495 C-131.86004892 65.6136252 -131.8565173 62.58106468 -131.84831238 59.54792786 C-131.8570509 58.66368301 -131.86578943 57.77943816 -131.87479275 56.86839801 C-131.83235933 51.08131309 -130.90426567 47.62905783 -126.7250824 43.38876343 C-123.62384481 41.70925333 -121.20601749 41.79570524 -117.68701172 41.78881836 C-116.67405785 41.78093292 -116.67405785 41.78093292 -115.64064026 41.77288818 C-113.41359156 41.75971019 -111.18726076 41.76841885 -108.96020508 41.77856445 C-107.40848148 41.77654283 -105.8567588 41.77363066 -104.30503845 41.76986694 C-101.05434109 41.7654464 -97.80389122 41.77186491 -94.55322266 41.78588867 C-90.39246659 41.80296636 -86.23229171 41.79314702 -82.07155704 41.77517128 C-78.8673009 41.76431386 -75.66318178 41.76778896 -72.45892143 41.77555466 C-70.92516447 41.777552 -69.39139496 41.77511376 -67.85765266 41.768116 C-65.71059513 41.76047057 -63.5644689 41.77214818 -61.41748047 41.78881836 C-60.19710587 41.79120514 -58.97673126 41.79359192 -57.71937561 41.79605103 C-54.168483 42.21461177 -52.31864003 43.0287176 -49.48754883 45.17700195 C-47.46028349 48.21789996 -47.23779274 48.77896175 -47.24145317 52.18499279 C-47.23747107 53.0025971 -47.23348898 53.82020142 -47.22938621 54.66258162 C-47.23521189 55.56043405 -47.24103758 56.45828648 -47.24703979 57.38334656 C-47.24447652 58.81439302 -47.24447652 58.81439302 -47.24186146 60.27434951 C-47.2385558 63.48505837 -47.24958802 66.69556025 -47.26049805 69.90625 C-47.26106193 72.20222977 -47.26074605 74.4982099 -47.25961304 76.79418945 C-47.25903762 83.03971178 -47.27082245 89.28515776 -47.28476095 95.5306623 C-47.2972369 102.05297445 -47.29843633 108.57528823 -47.30081177 115.09761047 C-47.30632798 126.04897426 -47.31883278 137.00030977 -47.33666992 147.95166016 C-47.35502423 159.23225768 -47.36918293 170.51284759 -47.37768555 181.79345703 C-47.37821099 182.48863883 -47.37873644 183.18382063 -47.37927781 183.90006854 C-47.38188786 187.38754519 -47.38441528 190.8750219 -47.38690162 194.36249864 C-47.40763952 223.30068554 -47.44341969 252.23884174 -47.48754883 281.17700195 C-36.59754883 281.17700195 -25.70754883 281.17700195 -14.48754883 281.17700195 C-14.49865189 277.75763275 -14.50975494 274.33826355 -14.52119446 270.8152771 C-14.62067108 239.46536593 -14.69532474 208.11548489 -14.74287548 176.76545187 C-14.74912907 172.65735498 -14.75560068 168.54925845 -14.76220703 164.44116211 C-14.76351858 163.62330752 -14.76483014 162.80545294 -14.76618143 161.96281488 C-14.78794324 148.71689799 -14.82736901 135.4710895 -14.87331281 122.22523694 C-14.92005593 108.6356856 -14.94783968 95.04619107 -14.9579913 81.45656264 C-14.96485494 73.06969151 -14.98653965 64.68312678 -15.02713116 56.29634996 C-15.0535431 50.546695 -15.06155338 44.79719865 -15.05505572 39.04748742 C-15.05185029 35.72911768 -15.05951915 32.41139729 -15.0835762 29.09309769 C-15.10838599 25.49517781 -15.10249633 21.89857791 -15.08882141 18.30062866 C-15.10338562 17.25198588 -15.11794983 16.20334309 -15.13295537 15.12292325 C-15.08596853 10.56171549 -15.03272162 7.21440713 -12.13746929 3.54427528 C-8.14433796 -0.02293869 -5.18232468 0.04311492 0 0 Z " fill="#3F72C8" transform="translate(403.487548828125,196.822998046875)"/>
<path d="M0 0 C0.98106468 -0.0098568 0.98106468 -0.0098568 1.98194885 -0.01991272 C4.14446128 -0.03960819 6.30690437 -0.05129986 8.46948242 -0.0612793 C9.5794436 -0.06739259 9.5794436 -0.06739259 10.71182823 -0.07362938 C14.62852065 -0.09447415 18.5451782 -0.10878271 22.46191406 -0.11816406 C26.5004589 -0.12922523 30.53845226 -0.16362564 34.57680225 -0.20333576 C37.68842063 -0.22952092 40.79990795 -0.23785754 43.91162682 -0.24144554 C45.39993705 -0.24630664 46.88824162 -0.25790718 48.37644386 -0.27648354 C50.46364291 -0.30091744 52.54941952 -0.2999034 54.63671875 -0.29296875 C55.82235916 -0.29883499 57.00799957 -0.30470123 58.22956848 -0.31074524 C62.25784214 0.2877468 64.38544216 1.6006632 67.51245117 4.17700195 C69.38843818 7.17152452 69.76175069 9.44333409 69.75854683 12.94835281 C69.76252893 13.9107674 69.76651102 14.87318198 69.77061379 15.86476064 C69.76187527 17.44646334 69.76187527 17.44646334 69.75296021 19.06011963 C69.75466905 20.18243068 69.7563779 21.30474172 69.75813854 22.46106219 C69.76144221 26.23525477 69.75041514 30.00927097 69.73950195 33.78344727 C69.73893803 36.48351442 69.73916589 39.18357065 69.74038696 41.88363647 C69.74143606 47.70364469 69.73515689 53.5236081 69.72391129 59.34360504 C69.70766258 67.75835424 69.70244893 76.17308175 69.6999353 84.58784494 C69.69555721 98.23997206 69.68224501 111.8920753 69.66333008 125.54418945 C69.64497423 138.80655803 69.63081628 152.06892012 69.62231445 165.33129883 C69.62178901 166.14868472 69.62126356 166.96607062 69.62072219 167.80822578 C69.61811213 171.90877873 69.61558471 176.00933172 69.61309838 180.10988474 C69.59236232 214.13227831 69.55549065 248.15462747 69.51245117 282.17700195 C41.79245117 282.17700195 14.07245117 282.17700195 -14.48754883 282.17700195 C-14.59775812 247.24574215 -14.69008568 212.31465093 -14.74287548 177.3832696 C-14.74912908 173.26015143 -14.75560068 169.13703363 -14.76220703 165.01391602 C-14.76351858 164.19307082 -14.76483014 163.37222562 -14.76618143 162.52650632 C-14.78794334 149.23209069 -14.82736916 135.93778307 -14.87331281 122.64343153 C-14.92005565 109.00415962 -14.94783962 95.36494431 -14.9579913 81.72559559 C-14.964855 73.30801549 -14.98654002 64.89074066 -15.02713116 56.47325452 C-15.05354276 50.7025749 -15.06155345 44.93205331 -15.05505572 39.16131763 C-15.05185016 35.83070769 -15.05951862 32.5010622 -15.0835762 29.1704731 C-15.10838527 25.55941758 -15.10249658 21.9496773 -15.08882141 18.33859253 C-15.10338562 17.2860588 -15.11794983 16.23352506 -15.13295537 15.14909637 C-15.0860574 10.58010578 -15.03800558 7.2188706 -12.13746929 3.54190254 C-8.14372224 -0.02228547 -5.18105332 0.04310434 0 0 Z " fill="#B6E345" transform="translate(403.487548828125,196.822998046875)"/>
<path d="M0 0 C0.80995422 -0.0065712 1.61990845 -0.0131424 2.45440674 -0.01991272 C5.14180591 -0.0396646 7.82914912 -0.05131325 10.51660156 -0.0612793 C11.89271984 -0.06739259 11.89271984 -0.06739259 13.29663849 -0.07362938 C18.15348588 -0.0944994 23.01030495 -0.10879638 27.8671875 -0.11816406 C32.88210633 -0.1292231 37.89658078 -0.16361445 42.91134262 -0.20333576 C46.76842061 -0.22949413 50.62539268 -0.23785527 54.48255157 -0.24144554 C56.33090461 -0.24631448 58.17925282 -0.25793723 60.02751923 -0.27648354 C62.61766122 -0.3008559 65.20665322 -0.29991352 67.796875 -0.29296875 C68.55762329 -0.30577881 69.31837158 -0.31858887 70.10217285 -0.33178711 C75.27583485 -0.28134109 78.16439904 0.93221964 82.15722656 4.17700195 C86.77387486 9.29274737 87.30984635 13.17322419 87.33422852 19.85791016 C87.34079971 20.63874969 87.34737091 21.41958923 87.35414124 22.22409058 C87.37385489 24.80865578 87.3855322 27.39316294 87.39550781 29.9777832 C87.39958334 30.86118063 87.40365887 31.74457806 87.40785789 32.6547451 C87.42870989 37.33004904 87.44301566 42.0053237 87.45239258 46.68066406 C87.46345826 51.50611218 87.49786235 56.33109932 87.53756428 61.15638447 C87.56372457 64.87020213 87.57208386 68.58390981 87.57567406 72.29781151 C87.58054114 74.07638858 87.59215864 75.85496069 87.61071205 77.63344765 C87.63509267 80.12530572 87.63414087 82.61596902 87.62719727 85.10791016 C87.64641235 86.2045977 87.64641235 86.2045977 87.66601562 87.32344055 C87.6146731 92.39171811 86.35202557 95.27703444 83.15722656 99.17700195 C79.30107287 101.1050788 74.58672824 100.44889568 70.34472656 100.48950195 C69.34634766 100.51850586 68.34796875 100.54750977 67.31933594 100.57739258 C59.92615645 100.64142411 59.92615645 100.64142411 56.02050781 98.2824707 C52.67998392 94.50774874 52.94776676 91.15849091 52.84082031 86.32543945 C52.82003922 85.55140778 52.79925812 84.7773761 52.77784729 83.97988892 C52.71239208 81.50401803 52.6534857 79.02803993 52.59472656 76.55200195 C52.5515375 74.87490747 52.50792308 73.19782389 52.46386719 71.52075195 C52.35671485 67.40627887 52.25543611 63.29169781 52.15722656 59.17700195 C51.68161663 59.65445547 51.2060067 60.13190899 50.71598434 60.6238308 C39.14553037 72.23844436 27.5695537 83.84752193 15.98739243 95.45046043 C10.38649253 101.06167498 4.78748133 106.67475015 -0.80712891 112.29223633 C-5.68312322 117.18815871 -10.56261736 122.08056094 -15.44635463 126.96876013 C-18.03236968 129.55738355 -20.61659246 132.1477411 -23.19663239 134.74232101 C-26.07617268 137.63795731 -28.96349839 140.52570696 -31.8515625 143.4128418 C-32.70680008 144.27526993 -33.56203766 145.13769806 -34.44319153 146.02626038 C-35.23120651 146.81152603 -36.0192215 147.59679169 -36.83111572 148.40585327 C-37.85430593 149.43180886 -37.85430593 149.43180886 -38.89816666 150.47849083 C-43.14663181 154.18930033 -46.2529675 154.39457562 -51.8359375 154.22607422 C-53.2799578 154.19029466 -54.72398919 154.15496108 -56.16802979 154.12001038 C-56.93135872 154.09824297 -57.69468765 154.07647556 -58.48114777 154.05404854 C-62.55941267 153.95001771 -66.6384731 153.91927017 -70.71777344 153.87817383 C-75.89381201 153.82466664 -81.06566643 153.74970815 -86.23925781 153.57714844 C-106.44159092 152.07066841 -106.44159092 152.07066841 -124.60351562 158.87475586 C-128.14153067 162.29552889 -130.97035545 166.01133896 -133.56710815 170.18218994 C-135.3102599 172.9080304 -137.35604662 175.09526419 -139.59277344 177.42700195 C-140.27082031 178.18754883 -140.94886719 178.9480957 -141.64746094 179.73168945 C-144.3101087 182.69755689 -147.01119385 185.62625919 -149.71777344 188.55200195 C-153.6223894 192.77319168 -157.52131273 196.99929118 -161.40527344 201.23950195 C-161.85499512 201.73047363 -162.3047168 202.22144531 -162.76806641 202.72729492 C-163.67339946 203.7158471 -164.57867306 204.70445372 -165.48388672 205.69311523 C-167.76919839 208.18864602 -170.05606924 210.68274723 -172.34277344 213.17700195 C-173.25944747 214.1769952 -174.17611414 215.1769952 -175.09277344 216.17700195 C-191.59277344 234.17700195 -191.59277344 234.17700195 -192.96850586 235.67773438 C-193.88281961 236.67521186 -194.79704524 237.67277013 -195.71118164 238.67041016 C-198.03812254 241.20968286 -200.36669818 243.74742336 -202.69824219 246.2824707 C-203.40255371 247.04926147 -203.40255371 247.04926147 -204.12109375 247.83154297 C-205.05270034 248.84497986 -205.98562201 249.85720959 -206.91992188 250.86816406 C-209.02000875 253.14854997 -211.07235219 255.45055976 -213.06542969 257.82543945 C-213.73445312 258.62208008 -214.40347656 259.4187207 -215.09277344 260.23950195 C-215.65480469 260.93172852 -216.21683594 261.62395508 -216.79589844 262.3371582 C-222.79262725 267.72734765 -229.36733521 267.61019223 -237.02294922 267.56518555 C-238.68029587 267.57307098 -238.68029587 267.57307098 -240.37112427 267.58111572 C-244.01025678 267.59428131 -247.64894925 267.58559067 -251.28808594 267.57543945 C-253.82201216 267.57746088 -256.35593782 267.58037289 -258.88986206 267.58413696 C-264.19405202 267.58855543 -269.49808515 267.58243092 -274.80224609 267.56811523 C-280.92754033 267.55177389 -287.05253519 267.55709228 -293.17782223 267.57359445 C-299.0826428 267.58886336 -304.98737061 267.58722942 -310.8922081 267.57844925 C-313.40005409 267.57644757 -315.90790772 267.57890539 -318.41574478 267.58588791 C-321.91783199 267.59350048 -325.4193425 267.58190083 -328.92138672 267.56518555 C-330.47690247 267.57429459 -330.47690247 267.57429459 -332.06384277 267.58358765 C-340.84652728 267.50586887 -340.84652728 267.50586887 -344.84277344 264.17700195 C-348.58408745 259.78075332 -348.32683774 255.23832252 -348.28027344 249.73950195 C-348.30025391 248.90612305 -348.32023437 248.07274414 -348.34082031 247.21411133 C-348.33636873 241.58286124 -347.51535748 238.49245918 -343.84277344 234.17700195 C-341.53860275 233.02491661 -340.28188676 233.06382384 -337.72131348 233.08607483 C-336.42625885 233.093069 -336.42625885 233.093069 -335.1050415 233.10020447 C-333.6806778 233.11513695 -333.6806778 233.11513695 -332.22753906 233.13037109 C-330.15710646 233.14314974 -328.08667174 233.15558989 -326.01623535 233.16773987 C-324.91415237 233.17565615 -323.8120694 233.18357243 -322.67658997 233.19172859 C-315.62344334 233.23376805 -308.57013168 233.22200033 -301.51688385 233.22184086 C-295.31780133 233.22483565 -289.11972548 233.24546281 -282.92089844 233.30371094 C-276.92696017 233.3589884 -270.93471196 233.36531192 -264.94059753 233.33901787 C-262.66011114 233.3377856 -260.37954177 233.35420708 -258.09931946 233.38893318 C-245.61330534 234.13696428 -245.61330534 234.13696428 -234.2722168 230.00265503 C-231.75562107 227.52061451 -229.79986965 225.10913029 -227.84277344 222.17700195 C-226.77605715 220.933387 -225.69601276 219.70083378 -224.59277344 218.48950195 C-224.04878906 217.85399414 -223.50480469 217.21848633 -222.94433594 216.5637207 C-220.02156731 213.24436823 -216.99312857 210.02774602 -213.96777344 206.80200195 C-209.29197705 201.81354763 -204.66566283 196.79001157 -200.10839844 191.69262695 C-196.91271283 188.14431397 -193.66902079 184.6412247 -190.42651367 181.13574219 C-187.03575072 177.46989277 -183.65318267 173.79678588 -180.28027344 170.11450195 C-179.83055176 169.62353027 -179.38083008 169.13255859 -178.91748047 168.62670898 C-178.01214742 167.63815681 -177.10687381 166.64955018 -176.20166016 165.66088867 C-173.91634848 163.16535789 -171.62947763 160.67125668 -169.34277344 158.17700195 C-168.4260994 157.17700871 -167.50943273 156.17700871 -166.59277344 155.17700195 C-164.7594401 153.17700195 -162.92610677 151.17700195 -161.09277344 149.17700195 C-160.63878174 148.68159912 -160.18479004 148.18619629 -159.71704102 147.67578125 C-158.80337606 146.67933621 -157.8891536 145.68340207 -156.97436523 144.68798828 C-154.63185799 142.13757361 -152.30071688 139.57807636 -149.98730469 137.0012207 C-135.66157476 121.09329732 -135.66157476 121.09329732 -129.84277344 120.17700195 C-127.19360352 120.58403015 -127.19360352 120.58403015 -124.11230469 121.3046875 C-102.23645742 125.92572642 -75.02589279 129.61796943 -54.97955322 117.43722534 C-38.69148072 106.19658824 -24.83731393 91.49117125 -11.34277344 77.11450195 C-10.87136177 76.61309299 -10.3999501 76.11168403 -9.91425323 75.59508085 C2.45401328 62.42495578 14.46774294 48.95366826 26.15722656 35.17700195 C25.21927246 35.16765625 24.28131836 35.15831055 23.31494141 35.14868164 C19.81436332 35.10450758 16.31498353 35.04282528 12.81494141 34.96948242 C11.30398718 34.94136413 9.79288836 34.92010424 8.28173828 34.90600586 C6.10146553 34.88444746 3.92291437 34.8377388 1.74316406 34.78637695 C0.43395996 34.76542969 -0.87524414 34.74448242 -2.22412109 34.72290039 C-6.38769735 34.09479646 -8.57765006 32.78559662 -11.84277344 30.17700195 C-14.66140414 26.05730839 -14.21042399 21.62324157 -14.21777344 16.80200195 C-14.24226563 15.96411133 -14.26675781 15.1262207 -14.29199219 14.26293945 C-14.3187136 8.59800054 -13.54793235 5.51575682 -9.84277344 1.17700195 C-6.72871339 -0.38002807 -3.41926892 0.0119583 0 0 Z " fill="#DD5690" transform="translate(385.8427734375,-0.177001953125)"/>
<path d="M0 0 C1.01295387 -0.00788544 1.01295387 -0.00788544 2.04637146 -0.01593018 C4.27342016 -0.02910817 6.49975096 -0.02039951 8.72680664 -0.01025391 C10.27853024 -0.01227553 11.83025291 -0.0151877 13.38197327 -0.01895142 C16.63267063 -0.02337196 19.8831205 -0.01695345 23.13378906 -0.00292969 C27.29454512 0.014148 31.45472001 0.00432866 35.61545467 -0.01364708 C38.81971082 -0.0245045 42.02382994 -0.0210294 45.22809029 -0.0132637 C46.76184725 -0.01126636 48.29561676 -0.0137046 49.82935905 -0.02070236 C51.97641659 -0.02834779 54.12254282 -0.01667018 56.26953125 0 C57.48990585 0.00238678 58.71028046 0.00477356 59.96763611 0.00723267 C63.51852872 0.42579341 65.36837169 1.23989924 68.19946289 3.38818359 C70.22940034 6.43308977 70.44921049 6.99905654 70.44555855 10.4117918 C70.44954064 11.23287951 70.45352274 12.05396722 70.45762551 12.89993638 C70.44888698 14.25255144 70.44888698 14.25255144 70.43997192 15.63249207 C70.44168077 16.59060659 70.44338962 17.54872112 70.44515026 18.53586942 C70.44845598 21.76039749 70.4374236 24.98471948 70.42651367 28.20922852 C70.42594979 30.51506037 70.42626566 32.82089259 70.42739868 35.12672424 C70.4279741 41.39910508 70.41618919 47.67140991 70.40225077 53.94377303 C70.38977491 60.49411242 70.3885754 67.04445342 70.38619995 73.59480286 C70.38101691 84.59324466 70.36817887 95.59165974 70.3503418 106.59008789 C70.33198753 117.91918803 70.31782881 129.24828058 70.30932617 140.57739258 C70.30880072 141.27556137 70.30827528 141.97373017 70.30773391 142.69305559 C70.30512386 146.19551631 70.30259644 149.69797709 70.3001101 153.2004379 C70.27937214 182.26304112 70.24249944 211.32560382 70.19946289 240.38818359 C42.47946289 240.38818359 14.75946289 240.38818359 -13.80053711 240.38818359 C-13.86666195 210.91786744 -13.92205886 181.44759437 -13.9537331 151.97722353 C-13.95748526 148.49873157 -13.96136822 145.02023977 -13.96533203 141.54174805 C-13.96611896 140.84923697 -13.96690589 140.1567259 -13.96771667 139.44322964 C-13.98077399 128.22715959 -14.00442961 117.01113562 -14.0319955 105.79509292 C-14.06004066 94.28815285 -14.07648689 82.78124523 -14.08280259 71.27427167 C-14.08671902 64.8102311 -14.09594565 58.34629509 -14.11772728 51.88228798 C-14.13805335 45.80110524 -14.14437873 39.72007037 -14.13986015 33.63885689 C-14.14068709 31.40433194 -14.14667569 29.16980217 -14.15815353 26.93530655 C-14.17303671 23.88904585 -14.16950576 20.84334653 -14.16130066 17.79707336 C-14.17440845 16.46486967 -14.17440845 16.46486967 -14.18778104 15.10575277 C-14.14544374 9.30708765 -13.22601363 5.84912724 -9.03807068 1.59994507 C-5.93683309 -0.07956503 -3.51900577 0.00688688 0 0 Z " fill="#80B3FA" transform="translate(285.800537109375,238.61181640625)"/>
<path d="M0 0 C0.64428955 -0.0049649 1.2885791 -0.00992981 1.95239258 -0.01504517 C4.08244906 -0.02964143 6.21243103 -0.03646496 8.3425293 -0.04199219 C9.82602439 -0.04774628 11.30951946 -0.05350399 12.79301453 -0.05926514 C15.90416815 -0.06976829 19.01529599 -0.07561525 22.12646484 -0.07910156 C26.10437697 -0.08458106 30.08194592 -0.10860001 34.05975056 -0.13707352 C37.12504558 -0.15573989 40.19025865 -0.16090764 43.2556057 -0.16243744 C44.72156841 -0.16545612 46.18752995 -0.17345812 47.65343666 -0.18662262 C49.70932384 -0.20376563 51.76438195 -0.2017833 53.8203125 -0.1953125 C54.98818802 -0.19895813 56.15606354 -0.20260376 57.35932922 -0.20635986 C61.1192092 0.21945305 63.43079092 1.10533943 66.60424805 3.16113281 C69.66765451 7.19130937 69.97607916 10.21741499 69.9650116 15.21626282 C69.96757487 15.91473884 69.97013815 16.61321487 69.9727791 17.33285683 C69.97770972 19.66688429 69.96123665 22.00026093 69.94482422 24.33422852 C69.94397779 26.00982142 69.9444534 27.68541543 69.94615173 29.36100769 C69.94701249 33.90611876 69.92937374 38.45099233 69.90842986 42.99604821 C69.88967644 47.74728711 69.88791367 52.49853144 69.88435364 57.24980164 C69.87502926 66.24534333 69.85041012 75.24077565 69.82030517 84.23626918 C69.78050357 96.3930419 69.76430946 108.54984454 69.74679852 120.70666599 C69.71858934 139.85823686 69.6588224 159.00957692 69.60424805 178.16113281 C41.88424805 178.16113281 14.16424805 178.16113281 -14.39575195 178.16113281 C-14.59726712 135.52052261 -14.59726712 135.52052261 -14.63989258 117.66894531 C-14.66957509 105.33680847 -14.7044926 93.00484227 -14.77294922 80.67285156 C-14.82277944 71.69199945 -14.85504187 62.71128562 -14.86619443 53.73029912 C-14.87271382 48.97469727 -14.88803941 44.21949103 -14.92440224 39.46401596 C-14.95835569 34.98733862 -14.96880626 30.51121961 -14.96129036 26.03442574 C-14.9626652 24.39210666 -14.97260187 22.74976879 -14.99177933 21.10756111 C-15.01670924 18.86251794 -15.01065992 16.61957433 -14.99702454 14.3744812 C-15.0016335 13.11899916 -15.00624247 11.86351711 -15.0109911 10.56999016 C-14.18856433 6.01316772 -12.67448758 4.39253601 -9.39575195 1.16113281 C-6.05437112 0.0473392 -3.5213074 0.02062954 0 0 Z " fill="#E39442" transform="translate(170.395751953125,300.8388671875)"/>
<path d="M0 0 C0.65594147 -0.00525696 1.31188293 -0.01051392 1.98770142 -0.01593018 C4.14439077 -0.0290763 6.30033508 -0.02041196 8.45703125 -0.01025391 C9.96248516 -0.01227621 11.46793811 -0.01518895 12.97338867 -0.01895142 C16.12395583 -0.02336744 19.27426731 -0.0169672 22.42480469 -0.00292969 C26.45662286 0.01416205 30.48784186 0.00431696 34.51963806 -0.01364708 C37.62695809 -0.02450458 40.73413683 -0.02102962 43.84146118 -0.0132637 C45.32776969 -0.01126712 46.81409116 -0.01370191 48.30038452 -0.02070236 C50.38028787 -0.0283496 52.45923043 -0.01666854 54.5390625 0 C56.31180542 0.00358017 56.31180542 0.00358017 58.12036133 0.00723267 C62.44401872 0.53025979 64.97942453 1.96137707 67.88866138 5.17887688 C69.5499862 7.83689424 69.63999184 9.34684698 69.6302948 12.46282959 C69.63441879 13.48644089 69.63854279 14.51005219 69.64279175 15.56468201 C69.63200592 16.68174026 69.62122009 17.79879852 69.61010742 18.94970703 C69.61076454 20.72085625 69.61076454 20.72085625 69.61143494 22.52778625 C69.60970382 25.76107333 69.59466523 28.99397019 69.57371306 32.22717953 C69.55495094 35.60775492 69.5531962 38.9883381 69.54963684 42.36895752 C69.54031498 48.76856347 69.5156994 55.16801555 69.48558837 61.56755376 C69.44875814 69.56893207 69.43234314 77.57033541 69.41601562 85.57177734 C69.3868019 99.8440326 69.32670488 114.11595214 69.26953125 128.38818359 C41.54953125 128.38818359 13.82953125 128.38818359 -14.73046875 128.38818359 C-14.85095976 98.60012953 -14.85095976 98.60012953 -14.88123035 83.89877605 C-14.89786211 75.94410019 -14.91898554 67.98951857 -14.95678711 60.03491211 C-14.9866993 53.73746763 -15.00604607 47.44009423 -15.01273423 41.14258069 C-15.01664346 37.80840065 -15.0273993 34.47447124 -15.04765892 31.14034462 C-15.06938555 27.41725146 -15.07243759 23.69458174 -15.07104492 19.97143555 C-15.08183075 18.8673233 -15.09261658 17.76321106 -15.10372925 16.62564087 C-15.06485624 7.04337262 -15.06485624 7.04337262 -11.73046875 3.38818359 C-7.85878769 0.3339443 -4.86218303 0.00981949 0 0 Z " fill="#F6E165" transform="translate(53.73046875,350.61181640625)"/>
<path d="M0 0 C1.01295387 -0.00788544 1.01295387 -0.00788544 2.04637146 -0.01593018 C4.27342016 -0.02910817 6.49975096 -0.02039951 8.72680664 -0.01025391 C10.27853024 -0.01227553 11.83025291 -0.0151877 13.38197327 -0.01895142 C16.63267063 -0.02337196 19.8831205 -0.01695345 23.13378906 -0.00292969 C27.29454512 0.014148 31.45472001 0.00432866 35.61545467 -0.01364708 C38.81971082 -0.0245045 42.02382994 -0.0210294 45.22809029 -0.0132637 C46.76184725 -0.01126636 48.29561676 -0.0137046 49.82935905 -0.02070236 C51.97641659 -0.02834779 54.12254282 -0.01667018 56.26953125 0 C57.48990585 0.00238678 58.71028046 0.00477356 59.96763611 0.00723267 C63.51852872 0.42579341 65.36837169 1.23989924 68.19946289 3.38818359 C70.69407494 7.13010167 70.46718445 10.01911122 70.42651367 14.34790039 C70.42680573 15.15788483 70.42709778 15.96786926 70.42739868 16.80239868 C70.42600486 19.48084204 70.41044121 22.15900755 70.39477539 24.83740234 C70.39104545 26.69399361 70.38819839 28.55058685 70.38619995 30.40718079 C70.37856202 35.29478384 70.35891214 40.18226811 70.33679199 45.06982422 C70.31633702 50.05678704 70.30719898 55.04376904 70.29711914 60.03076172 C70.27566642 69.81662121 70.24152852 79.60239253 70.19946289 89.38818359 C67.31840035 90.99043823 64.43705657 92.59218649 61.55566406 94.19384766 C60.74490166 94.64474762 59.93413925 95.09564758 59.09880829 95.56021118 C43.97313746 103.96685335 28.66338596 111.77935994 12.88696289 118.88818359 C11.89752182 119.33429993 11.89752182 119.33429993 10.88809204 119.78942871 C-10.45984007 129.38818359 -10.45984007 129.38818359 -13.80053711 129.38818359 C-13.87063321 113.69812142 -13.92352818 98.00810155 -13.95597363 82.31792164 C-13.97143936 75.0326139 -13.99252318 67.74740348 -14.02685547 60.4621582 C-14.05676692 54.11197602 -14.07611425 47.76186432 -14.08280259 41.41161364 C-14.08671193 38.04950051 -14.09589303 34.68758902 -14.11772728 31.32554054 C-14.13945278 27.57131538 -14.142506 23.81751016 -14.14111328 20.06323242 C-14.15189911 18.94976944 -14.16268494 17.83630646 -14.17379761 16.68910217 C-14.16967361 15.66411621 -14.16554962 14.63913025 -14.16130066 13.58308411 C-14.16406604 12.69539746 -14.16683142 11.80771082 -14.1696806 10.89312458 C-13.59794198 7.01340963 -11.75687797 4.35850879 -9.03807068 1.59994507 C-5.93683309 -0.07956503 -3.51900577 0.00688688 0 0 Z " fill="#9CC5FB" transform="translate(285.800537109375,238.61181640625)"/>
<path d="M0 0 C0 31.68 0 63.36 0 96 C-27.39 96 -54.78 96 -83 96 C-83 72.24 -83 48.48 -83 24 C-72.91627279 20.6387576 -72.91627279 20.6387576 -68.234375 19.4921875 C-67.19369873 19.23228027 -66.15302246 18.97237305 -65.08081055 18.70458984 C-63.43205933 18.29394287 -63.43205933 18.29394287 -61.75 17.875 C-51.63934013 15.30443389 -41.64654625 12.47178296 -31.6875 9.375 C-30.52766602 9.01519043 -29.36783203 8.65538086 -28.17285156 8.28466797 C-23.4767138 6.80645341 -18.79813074 5.30627781 -14.17431641 3.61425781 C-13.54233841 3.38324371 -12.91036041 3.15222961 -12.25923157 2.91421509 C-10.49413502 2.26329376 -8.73290134 1.60192525 -6.97192383 0.93994141 C-4 0 -4 0 0 0 Z " fill="#E28424" transform="translate(239,382)"/>
<path d="M0 0 C0.98106468 -0.0098568 0.98106468 -0.0098568 1.98194885 -0.01991272 C4.14446128 -0.03960819 6.30690437 -0.05129986 8.46948242 -0.0612793 C9.5794436 -0.06739259 9.5794436 -0.06739259 10.71182823 -0.07362938 C14.62852065 -0.09447415 18.5451782 -0.10878271 22.46191406 -0.11816406 C26.5004589 -0.12922523 30.53845226 -0.16362564 34.57680225 -0.20333576 C37.68842063 -0.22952092 40.79990795 -0.23785754 43.91162682 -0.24144554 C45.39993705 -0.24630664 46.88824162 -0.25790718 48.37644386 -0.27648354 C50.46364291 -0.30091744 52.54941952 -0.2999034 54.63671875 -0.29296875 C55.82235916 -0.29883499 57.00799957 -0.30470123 58.22956848 -0.31074524 C62.7389048 0.35921965 66.09721865 2.2971198 68.85986328 5.96679688 C70.39531352 11.16710778 70.00565534 16.80438215 70.04785156 22.19335938 C70.07475705 24.47305393 70.14967851 26.74808663 70.2253418 29.02661133 C70.41570357 39.67851462 70.41570357 39.67851462 68.01757812 43.65698242 C66.27388529 45.38898185 64.50640072 46.75070271 62.51245117 48.17700195 C61.5013996 49.31614777 60.51750975 50.48056483 59.57495117 51.67700195 C56.9441182 54.79553503 54.08012207 57.39591343 50.97338867 60.0324707 C48.41267568 62.26394917 45.93854969 64.56964555 43.46508789 66.89672852 C37.36105343 72.63383598 31.19136225 78.10904074 24.51245117 83.17700195 C23.81909668 83.70519531 23.12574219 84.23338867 22.41137695 84.77758789 C13.33024301 91.68457719 4.18065794 98.49501377 -5.11254883 105.11450195 C-5.82870361 105.62851562 -6.5448584 106.1425293 -7.28271484 106.67211914 C-12.24877625 110.17700195 -12.24877625 110.17700195 -14.48754883 110.17700195 C-14.60340583 96.85118768 -14.69224603 83.52549325 -14.74660969 70.19927788 C-14.77270177 64.01133305 -14.8080939 57.82373283 -14.86474609 51.63598633 C-14.91907796 45.66429381 -14.94897229 39.69293273 -14.96193504 33.72101212 C-14.97117267 31.44280911 -14.98921166 29.16462423 -15.01619911 26.88656235 C-15.05250373 23.69505381 -15.0574934 20.50491427 -15.05517578 17.31323242 C-15.07315216 16.37167801 -15.09112854 15.4301236 -15.10964966 14.46003723 C-15.0754084 10.10146399 -14.90010802 7.09933366 -12.13957214 3.60598755 C-8.1604414 -0.03849446 -5.21660592 0.04340012 0 0 Z " fill="#C7E972" transform="translate(403.487548828125,196.822998046875)"/>
<path d="M0 0 C0 21.78 0 43.56 0 66 C-27.72 66 -55.44 66 -84 66 C-84 47.85 -84 29.7 -84 11 C-77.420625 10.278125 -70.84125 9.55625 -64.0625 8.8125 C-49.66894971 7.20175865 -35.31559544 5.45380843 -21 3.25 C-20.30576935 3.14354156 -19.6115387 3.03708313 -18.89627075 2.92739868 C-11.80716992 1.91240995 -11.80716992 1.91240995 -4.80859375 0.43652344 C-3 0 -3 0 0 0 Z " fill="#EFD234" transform="translate(123,413)"/>
</svg>
