<?xml version="1.0" encoding="UTF-8"?>
<svg version="1.1" xmlns="http://www.w3.org/2000/svg" width="512" height="512">
<path d="M0 0 C3.42493618 2.90863983 6.73133892 5.91749382 10 9 C10.67675781 9.61230469 11.35351562 10.22460938 12.05078125 10.85546875 C25.1918115 23.2064571 34.62421033 40.16641336 40.375 57.125 C40.60155273 57.79176758 40.82810547 58.45853516 41.06152344 59.14550781 C44.99862311 71.57253371 46.55918268 83.75225531 46.4375 96.75 C46.43293793 97.79232788 46.43293793 97.79232788 46.42828369 98.85571289 C46.35473152 110.26708759 45.43697028 121.06656335 42 132 C41.67854004 133.03350586 41.67854004 133.03350586 41.35058594 134.08789062 C35.17841437 153.26025471 24.78792434 169.37941238 11 184 C10.38769531 184.67675781 9.77539062 185.35351562 9.14453125 186.05078125 C-5.40750341 201.53364968 -25.71621002 211.53512618 -46 217 C-46.65838867 217.17789063 -47.31677734 217.35578125 -47.99511719 217.5390625 C-75.7783793 224.60759562 -109.35265796 220.96086087 -134.3125 206.5 C-135.13363281 205.9740625 -135.95476562 205.448125 -136.80078125 204.90625 C-138.94239853 203.73056261 -138.94239853 203.73056261 -140.90041924 204.71967697 C-143.2078182 206.12672741 -144.89200542 207.65749899 -146.79251099 209.57891846 C-147.53241776 210.32185654 -148.27232452 211.06479462 -149.03465271 211.83024597 C-149.83677689 212.64584488 -150.63890106 213.46144379 -151.46533203 214.30175781 C-152.31792099 215.16047989 -153.17050995 216.01920197 -154.04893494 216.90394592 C-155.90137844 218.77070341 -157.75193319 220.63914197 -159.59970474 222.51050568 C-162.52842515 225.47590465 -165.46590719 228.43251886 -168.40499878 231.38763428 C-176.76095914 239.79181867 -185.10521018 248.20757036 -193.44042969 256.63232422 C-198.04543001 261.28663402 -202.65775793 265.93355964 -207.27786338 270.57287669 C-210.19374958 273.50175964 -213.10043401 276.43937509 -216.00038457 279.38403273 C-218.24483521 281.65772621 -220.50262298 283.91811685 -222.75830078 286.18066406 C-223.94326897 287.39191704 -223.94326897 287.39191704 -225.1521759 288.62763977 C-233.52464223 296.97125108 -241.9630912 302.50642305 -254 303 C-263.06333132 302.46301072 -269.67102599 298.72727045 -275.8125 292.1875 C-282.33434462 284.16175971 -283.03230015 276.21742535 -282 266 C-279.31938501 255.29349609 -269.77229138 247.62839055 -262.203125 240.16894531 C-261.35193588 239.32564163 -260.50074677 238.48233795 -259.62376404 237.61347961 C-257.78927582 235.79609469 -255.95374809 233.97975858 -254.11727905 232.16437531 C-251.21401582 229.29398709 -248.31692505 226.41742242 -245.42114258 223.53948975 C-244.42628525 222.55089141 -243.43142746 221.56229355 -242.43656921 220.57369614 C-241.93891241 220.07915546 -241.44125561 219.58461478 -240.9285183 219.07508802 C-234.19693599 212.38642272 -227.46071492 205.70252773 -220.71044922 199.03271484 C-216.14006342 194.5167055 -211.57854352 189.99194672 -207.02708626 185.4568584 C-204.62210847 183.06126371 -202.212728 180.67049431 -199.7923584 178.29044342 C-197.10394545 175.64277348 -194.43122464 172.98018862 -191.76171875 170.31347656 C-190.95560654 169.52691177 -190.14949432 168.74034698 -189.31895447 167.9299469 C-188.59841385 167.20397812 -187.87787323 166.47800934 -187.13549805 165.7300415 C-186.18540108 164.78880621 -186.18540108 164.78880621 -185.21611023 163.82855606 C-183.7728033 162.08051197 -183.7728033 162.08051197 -184.21589661 159.96902084 C-185.39426081 157.00994212 -186.70769644 154.13256077 -188.0625 151.25 C-188.61035156 150.07953125 -189.15820312 148.9090625 -189.72265625 147.703125 C-190.35494141 146.36507812 -190.35494141 146.36507812 -191 145 C-192.97197861 144.99453156 -192.97197861 144.99453156 -194.98379517 144.98895264 C-207.37306895 144.95201169 -219.76209397 144.89424852 -232.15117836 144.81609726 C-238.52055518 144.77658802 -244.88979302 144.74441625 -251.25927734 144.72900391 C-257.40618347 144.71386033 -263.55270762 144.6794549 -269.69944382 144.63169098 C-272.04454605 144.61685358 -274.38970282 144.60895764 -276.73485184 144.60811615 C-280.01977516 144.60575195 -283.3036382 144.57871452 -286.58837891 144.54589844 C-288.04278885 144.55344398 -288.04278885 144.55344398 -289.52658081 144.56114197 C-295.3225583 144.47155857 -298.54763639 143.79250712 -303 140 C-305.84534168 136.39402242 -305.30582109 131.89496011 -305.30078125 127.5 C-305.30506638 126.66847412 -305.3093515 125.83694824 -305.31376648 124.98022461 C-305.31950545 123.21843371 -305.32001322 121.45661912 -305.31567383 119.69482422 C-305.31254358 117.03700604 -305.33587333 114.38033445 -305.36132812 111.72265625 C-305.43095132 93.68664522 -301.9799013 78.52512876 -289.17578125 65 C-283.77193126 60.03272676 -277.69713783 55.99608798 -271 53 C-272.14751204 49.93996789 -273.47548666 47.07156068 -275 44.1875 C-279.97194115 34.22506567 -280.36622569 23.98120495 -277.375 13.3125 C-273.69637235 2.57141995 -267.20866755 -6.06355959 -257.1171875 -11.57421875 C-246.07047292 -16.71462327 -232.86609424 -18.38321144 -221.0625 -14.5 C-209.38612466 -9.39832216 -201.45242858 -1.70457549 -196.1875 9.75 C-192.45718153 19.31646189 -191.9291896 29.15975869 -195 39 C-196.4652627 42.26866294 -198.04732035 45.41959175 -199.7578125 48.56640625 C-201.15154413 50.8415114 -201.15154413 50.8415114 -201 53 C-198.36 54.32 -195.72 55.64 -193 57 C-192.90976562 56.16855469 -192.81953125 55.33710938 -192.7265625 54.48046875 C-191.8625587 50.34161184 -190.30534824 47.04702113 -188.375 43.3125 C-187.8332312 42.25421997 -187.8332312 42.25421997 -187.28051758 41.17456055 C-181.45089507 29.94387017 -174.41112257 20.39311551 -166 11 C-165.03126953 9.90365234 -165.03126953 9.90365234 -164.04296875 8.78515625 C-149.1185338 -7.11473197 -128.76274027 -17.25782707 -108 -23 C-106.79988281 -23.3403125 -105.59976563 -23.680625 -104.36328125 -24.03125 C-68.35132176 -32.44052919 -28.63779381 -23.16420937 0 0 Z " fill="#020302" transform="translate(465,203)"/>
<path d="M0 0 C3.42493618 2.90863983 6.73133892 5.91749382 10 9 C10.67675781 9.61230469 11.35351562 10.22460938 12.05078125 10.85546875 C25.1918115 23.2064571 34.62421033 40.16641336 40.375 57.125 C40.60155273 57.79176758 40.82810547 58.45853516 41.06152344 59.14550781 C44.99862311 71.57253371 46.55918268 83.75225531 46.4375 96.75 C46.43293793 97.79232788 46.43293793 97.79232788 46.42828369 98.85571289 C46.35473152 110.26708759 45.43697028 121.06656335 42 132 C41.67854004 133.03350586 41.67854004 133.03350586 41.35058594 134.08789062 C35.17841437 153.26025471 24.78792434 169.37941238 11 184 C10.38769531 184.67675781 9.77539062 185.35351562 9.14453125 186.05078125 C-5.40750341 201.53364968 -25.71621002 211.53512618 -46 217 C-46.65838867 217.17789063 -47.31677734 217.35578125 -47.99511719 217.5390625 C-75.7783793 224.60759562 -109.35265796 220.96086087 -134.3125 206.5 C-135.13363281 205.9740625 -135.95476562 205.448125 -136.80078125 204.90625 C-138.94239853 203.73056261 -138.94239853 203.73056261 -140.90041924 204.71967697 C-143.2078182 206.12672741 -144.89200542 207.65749899 -146.79251099 209.57891846 C-147.53241776 210.32185654 -148.27232452 211.06479462 -149.03465271 211.83024597 C-149.83677689 212.64584488 -150.63890106 213.46144379 -151.46533203 214.30175781 C-152.31792099 215.16047989 -153.17050995 216.01920197 -154.04893494 216.90394592 C-155.90137844 218.77070341 -157.75193319 220.63914197 -159.59970474 222.51050568 C-162.52842515 225.47590465 -165.46590719 228.43251886 -168.40499878 231.38763428 C-176.76095914 239.79181867 -185.10521018 248.20757036 -193.44042969 256.63232422 C-198.04543001 261.28663402 -202.65775793 265.93355964 -207.27786338 270.57287669 C-210.19374958 273.50175964 -213.10043401 276.43937509 -216.00038457 279.38403273 C-218.24483521 281.65772621 -220.50262298 283.91811685 -222.75830078 286.18066406 C-223.94326897 287.39191704 -223.94326897 287.39191704 -225.1521759 288.62763977 C-233.52464223 296.97125108 -241.9630912 302.50642305 -254 303 C-263.06333132 302.46301072 -269.67102599 298.72727045 -275.8125 292.1875 C-282.33434462 284.16175971 -283.03230015 276.21742535 -282 266 C-279.31938501 255.29349609 -269.77229138 247.62839055 -262.203125 240.16894531 C-261.35193588 239.32564163 -260.50074677 238.48233795 -259.62376404 237.61347961 C-257.78927582 235.79609469 -255.95374809 233.97975858 -254.11727905 232.16437531 C-251.21401582 229.29398709 -248.31692505 226.41742242 -245.42114258 223.53948975 C-244.42628525 222.55089141 -243.43142746 221.56229355 -242.43656921 220.57369614 C-241.93891241 220.07915546 -241.44125561 219.58461478 -240.9285183 219.07508802 C-234.19693599 212.38642272 -227.46071492 205.70252773 -220.71044922 199.03271484 C-216.14006342 194.5167055 -211.57854352 189.99194672 -207.02708626 185.4568584 C-204.62210847 183.06126371 -202.212728 180.67049431 -199.7923584 178.29044342 C-197.10394545 175.64277348 -194.43122464 172.98018862 -191.76171875 170.31347656 C-190.95560654 169.52691177 -190.14949432 168.74034698 -189.31895447 167.9299469 C-188.59841385 167.20397812 -187.87787323 166.47800934 -187.13549805 165.7300415 C-186.18540108 164.78880621 -186.18540108 164.78880621 -185.21611023 163.82855606 C-183.7728033 162.08051197 -183.7728033 162.08051197 -184.21589661 159.96902084 C-185.39426081 157.00994212 -186.70769644 154.13256077 -188.0625 151.25 C-188.61035156 150.07953125 -189.15820312 148.9090625 -189.72265625 147.703125 C-190.35494141 146.36507812 -190.35494141 146.36507812 -191 145 C-192.97197861 144.99453156 -192.97197861 144.99453156 -194.98379517 144.98895264 C-207.37306895 144.95201169 -219.76209397 144.89424852 -232.15117836 144.81609726 C-238.52055518 144.77658802 -244.88979302 144.74441625 -251.25927734 144.72900391 C-257.40618347 144.71386033 -263.55270762 144.6794549 -269.69944382 144.63169098 C-272.04454605 144.61685358 -274.38970282 144.60895764 -276.73485184 144.60811615 C-280.01977516 144.60575195 -283.3036382 144.57871452 -286.58837891 144.54589844 C-288.04278885 144.55344398 -288.04278885 144.55344398 -289.52658081 144.56114197 C-295.3225583 144.47155857 -298.54763639 143.79250712 -303 140 C-305.84534168 136.39402242 -305.30582109 131.89496011 -305.30078125 127.5 C-305.30506638 126.66847412 -305.3093515 125.83694824 -305.31376648 124.98022461 C-305.31950545 123.21843371 -305.32001322 121.45661912 -305.31567383 119.69482422 C-305.31254358 117.03700604 -305.33587333 114.38033445 -305.36132812 111.72265625 C-305.43095132 93.68664522 -301.9799013 78.52512876 -289.17578125 65 C-283.77193126 60.03272676 -277.69713783 55.99608798 -271 53 C-272.14751204 49.93996789 -273.47548666 47.07156068 -275 44.1875 C-279.97194115 34.22506567 -280.36622569 23.98120495 -277.375 13.3125 C-273.69637235 2.57141995 -267.20866755 -6.06355959 -257.1171875 -11.57421875 C-246.07047292 -16.71462327 -232.86609424 -18.38321144 -221.0625 -14.5 C-209.38612466 -9.39832216 -201.45242858 -1.70457549 -196.1875 9.75 C-192.45718153 19.31646189 -191.9291896 29.15975869 -195 39 C-196.4652627 42.26866294 -198.04732035 45.41959175 -199.7578125 48.56640625 C-201.15154413 50.8415114 -201.15154413 50.8415114 -201 53 C-198.36 54.32 -195.72 55.64 -193 57 C-192.90976562 56.16855469 -192.81953125 55.33710938 -192.7265625 54.48046875 C-191.8625587 50.34161184 -190.30534824 47.04702113 -188.375 43.3125 C-187.8332312 42.25421997 -187.8332312 42.25421997 -187.28051758 41.17456055 C-181.45089507 29.94387017 -174.41112257 20.39311551 -166 11 C-165.03126953 9.90365234 -165.03126953 9.90365234 -164.04296875 8.78515625 C-149.1185338 -7.11473197 -128.76274027 -17.25782707 -108 -23 C-106.79988281 -23.3403125 -105.59976563 -23.680625 -104.36328125 -24.03125 C-68.35132176 -32.44052919 -28.63779381 -23.16420937 0 0 Z M-146 14 C-146.8146875 14.67933594 -147.629375 15.35867187 -148.46875 16.05859375 C-169.04068626 33.86855708 -182.67018895 59.78780693 -185 87 C-186.34698059 112.33379963 -180.85937309 135.01932871 -167.3671875 156.61328125 C-165.51750428 159.84229968 -165.27868589 161.32129805 -166 165 C-170.63265437 171.334877 -176.65238058 176.77916022 -182.20825195 182.29003906 C-183.5821727 183.65925304 -184.95609239 185.02846809 -186.32997167 186.39772367 C-187.79138463 187.85329006 -189.25402644 189.30761138 -190.71700478 190.76160431 C-193.77519267 193.80135662 -196.82890618 196.84557783 -199.88188171 199.89056396 C-208.55818763 208.54282044 -217.24050176 217.18903339 -225.92700195 225.83105469 C-230.73684208 230.61634464 -235.5430792 235.40522423 -240.34548348 240.19797683 C-243.37907455 243.22503452 -246.4171112 246.24753541 -249.45854056 249.26671648 C-251.78927778 251.58297131 -254.1134912 253.9057572 -256.4387207 256.22753906 C-257.70184082 257.47751678 -257.70184082 257.47751678 -258.99047852 258.75274658 C-259.7572139 259.52078613 -260.52394928 260.28882568 -261.31391907 261.08013916 C-261.98142339 261.74450108 -262.64892771 262.40886299 -263.33665943 263.09335709 C-266.01517816 266.16367164 -266.93556934 268.30414888 -267.3125 272.375 C-266.85551955 277.67597317 -265.39035103 280.74529297 -261.4375 284.3125 C-257.37609047 287.12424506 -254.97985037 287.33199002 -250 287 C-243.52389641 284.68402782 -239.27414578 279.66578846 -234.55395508 274.87866211 C-233.62155502 273.94509384 -232.68915497 273.01152557 -231.72850037 272.04966736 C-229.18074551 269.49851244 -226.64226392 266.93830708 -224.1052382 264.37648845 C-221.44578384 261.69449708 -218.77737503 259.02144657 -216.10978699 256.34754944 C-211.06095307 251.28424726 -206.01939307 246.213771 -200.98078221 241.14029747 C-191.95141636 232.04892736 -182.90977105 222.96977671 -173.86540717 213.89332968 C-170.69201206 210.70810219 -167.52182424 207.51972569 -164.3542763 204.32868373 C-162.85953391 202.82344605 -161.36369326 201.31930989 -159.86738586 199.81562805 C-158.04259203 197.98163716 -156.21965297 196.14579825 -154.39889526 194.30780029 C-153.59568344 193.50162766 -152.79247162 192.69545502 -151.96492004 191.86485291 C-151.26754132 191.16265594 -150.5701626 190.46045897 -149.85165119 189.7369833 C-147.39497062 187.4324385 -145.65288859 186.09179782 -142.27734375 185.6171875 C-138.05666738 186.11018665 -135.10075711 187.93398726 -131.5625 190.125 C-107.88269627 204.00889736 -80.32145695 209.49532136 -53.30883789 202.8347168 C-51.19214943 202.26151226 -49.09559077 201.64590127 -47 201 C-46.3203418 200.79101074 -45.64068359 200.58202148 -44.94042969 200.36669922 C-28.49635528 195.11733544 -14.64204141 186.66149526 -2 175 C-1.27554687 174.36835938 -0.55109375 173.73671875 0.1953125 173.0859375 C11.09366923 163.07003881 18.40526739 149.51932647 24 136 C24.59748047 134.60394531 24.59748047 134.60394531 25.20703125 133.1796875 C35.61067749 107.07315949 32.64521398 77.71408238 22.02539062 52.28515625 C17.32086716 41.80078966 10.67633366 32.51185297 3 24 C2.24203125 23.15953125 1.4840625 22.3190625 0.703125 21.453125 C-18.57691487 1.16497847 -46.08019915 -10.44146984 -73.91943359 -11.38525391 C-100.69052706 -11.85849147 -125.42409925 -3.15832819 -146 14 Z " fill="#000102" transform="translate(465,203)"/>
<path d="M0 0 C8.71096062 8.27811785 13.03084901 18.33211469 13.65625 30.38671875 C13.3520741 40.69067738 10.51949492 49.19571748 4.5625 57.5625 C5.16835938 57.89121094 5.77421875 58.21992187 6.3984375 58.55859375 C13.2676782 62.45820886 18.93523586 67.03293142 24.5625 72.5625 C25.42875 73.40941406 25.42875 73.40941406 26.3125 74.2734375 C38.27908781 87.05026302 40.08667868 103.92548257 39.95361328 120.59448242 C39.93735781 123.02122783 39.95363862 125.44634797 39.97265625 127.87304688 C39.97067635 129.43489946 39.96683793 130.99675105 39.9609375 132.55859375 C39.97004654 133.6321537 39.97004654 133.6321537 39.9793396 134.72740173 C39.91416534 139.40249224 39.22580073 142.6940715 36.5625 146.5625 C31.00337726 150.38486261 25.44740423 149.98678538 18.9609375 149.95068359 C17.21843719 149.95856903 17.21843719 149.95856903 15.44073486 149.96661377 C11.6061859 149.97980233 7.77205308 149.97107929 3.9375 149.9609375 C1.27001429 149.96295856 -1.39745884 149.96586579 -4.06494141 149.96963501 C-9.65336605 149.97508589 -15.24167158 149.96791856 -20.83007812 149.95361328 C-27.28194793 149.93728794 -33.73353328 149.94257693 -40.18539619 149.9590925 C-45.73463429 149.97272648 -51.28378698 149.97461772 -56.83303642 149.96677649 C-60.14307977 149.96211042 -63.45296086 149.96263142 -66.76300049 149.97138596 C-70.454175 149.9790061 -74.14480363 149.96738729 -77.8359375 149.95068359 C-79.47257355 149.95979263 -79.47257355 149.95979263 -81.14227295 149.96908569 C-86.64361386 149.92297495 -90.72137088 149.73777466 -95.4375 146.5625 C-99.0796451 142.34725478 -98.89035983 138.08639542 -98.87109375 132.78125 C-98.8763356 131.9313147 -98.88157745 131.08137939 -98.88697815 130.20568848 C-98.8933903 128.40699349 -98.89207179 126.60825652 -98.88354492 124.80957031 C-98.87511297 122.09881673 -98.9036785 119.39022888 -98.93554688 116.6796875 C-99.00936237 98.57865065 -94.72118377 83.45521176 -82.01171875 69.92578125 C-76.51806649 64.8822917 -70.17291734 60.7622232 -63.4375 57.5625 C-63.83582031 57.04042969 -64.23414063 56.51835938 -64.64453125 55.98046875 C-71.31974244 46.70663519 -73.70846937 36.94410214 -72.4375 25.5625 C-69.56633929 11.72577636 -62.91766419 1.78780782 -51.09375 -5.9765625 C-34.33044315 -15.28346338 -14.45541368 -11.99664238 0 0 Z " fill="#010301" transform="translate(258.4375,17.4375)"/>
<path d="M0 0 C8.24982078 8.93374374 11.89204888 19.73795876 11.48046875 31.828125 C10.78022 40.21860561 8.37793476 49.33300274 2.26171875 55.44921875 C3.10734375 55.94550781 3.95296875 56.44179687 4.82421875 56.953125 C19.45804461 65.65910643 31.11476253 76.26334405 35.78926086 93.38104248 C37.09052055 98.86309707 37.58176551 104.0236537 37.59765625 109.6484375 C37.60764145 110.90645927 37.60764145 110.90645927 37.61782837 112.18989563 C37.62787481 113.94696889 37.6326479 115.70407969 37.63232422 117.46118164 C37.6367254 120.14077032 37.67320431 122.81874551 37.7109375 125.49804688 C37.71680195 127.21483818 37.72077383 128.93163721 37.72265625 130.6484375 C37.7442128 131.83925179 37.7442128 131.83925179 37.76620483 133.05412292 C37.72344734 138.27477113 36.85405519 141.39871924 33.26171875 145.44921875 C29.79312033 147.15838478 26.99059607 147.70086758 23.14515686 147.70991516 C22.13725601 147.71699997 21.12935516 147.72408478 20.09091187 147.73138428 C18.99622589 147.72890686 17.90153992 147.72642944 16.77368164 147.72387695 C15.6121608 147.72898788 14.45063995 147.73409882 13.25392151 147.73936462 C9.41402027 147.75326584 5.57429841 147.75230347 1.734375 147.75 C-0.25996913 147.75290418 -2.25431333 147.75581301 -4.24865633 147.75940675 C-10.51759582 147.77049205 -16.78647538 147.77094481 -23.05541992 147.76489258 C-29.51464122 147.75885238 -35.9736447 147.77116704 -42.43282884 147.79246265 C-47.98628243 147.81009635 -53.5396668 147.81607724 -59.09314734 147.8128249 C-62.40657313 147.81101475 -65.71980917 147.81494004 -69.03321648 147.82753944 C-72.72926515 147.83986927 -76.42480908 147.83313238 -80.12084961 147.8215332 C-81.75984222 147.83299881 -81.75984222 147.83299881 -83.4319458 147.84469604 C-88.9180262 147.80662313 -93.06132456 147.66928575 -97.73828125 144.44921875 C-100.80364729 139.98056385 -101.19381907 135.83038064 -101.171875 130.55078125 C-101.17711685 129.7981601 -101.1823587 129.04553894 -101.1877594 128.27011108 C-101.19416086 126.67829615 -101.19286694 125.0864338 -101.18432617 123.49462891 C-101.17592627 121.11529739 -101.20441896 118.73846293 -101.23632812 116.359375 C-101.32091837 98.17223586 -97.52719458 81.99306217 -84.42578125 68.57421875 C-79.60228062 63.96361746 -74.59572778 60.58557538 -68.73828125 57.44921875 C-67.74828125 56.78921875 -66.75828125 56.12921875 -65.73828125 55.44921875 C-66.13660156 54.88976562 -66.53492188 54.3303125 -66.9453125 53.75390625 C-74.09841229 42.92853383 -75.8114354 31.75234961 -73.58984375 19.1484375 C-71.27762198 9.10406126 -65.64251277 0.74832533 -57.28125 -5.33984375 C-38.14693508 -17.27307241 -16.61804917 -15.78323351 0 0 Z " fill="#010203" transform="translate(419.73828125,19.55078125)"/>
<path d="M0 0 C9.76126628 9.98827247 14.30674647 20.59846565 14.16479492 34.46850586 C13.79548617 43.75740113 10.27994501 50.85794114 5.6875 58.75 C6.59371094 59.29527344 7.49992187 59.84054688 8.43359375 60.40234375 C23.64234257 69.73051582 34.88465283 81.21774213 39.21484375 99.0546875 C40.60789519 106.99853455 40.90423627 114.72163321 40.92773438 122.78637695 C40.93749648 124.81176992 40.96862879 126.83616962 41 128.86132812 C41.0509469 141.6553672 41.0509469 141.6553672 37.6875 146.75 C32.24592432 151.64020575 27.07536738 151.31968099 19.99414062 151.26757812 C18.23700996 151.27809204 18.23700996 151.27809204 16.44438171 151.28881836 C12.57726242 151.30640459 8.71087658 151.29477241 4.84375 151.28125 C2.15384328 151.28214106 -0.53605043 151.28782099 -3.22595215 151.29284668 C-8.86149014 151.30011475 -14.49681814 151.29055767 -20.13232422 151.27148438 C-26.63879968 151.24971697 -33.1447737 151.25676896 -39.65123701 151.27879 C-45.24720268 151.29696817 -50.8430178 151.2994906 -56.43900347 151.28903532 C-59.77707313 151.28281346 -63.11471869 151.2835088 -66.45280457 151.29518127 C-70.17526127 151.30534126 -73.89675558 151.28985128 -77.61914062 151.26757812 C-78.71958206 151.27567505 -79.8200235 151.28377197 -80.95381165 151.29211426 C-87.03964118 151.22466356 -90.71833272 150.88552354 -95.3125 146.75 C-97.3227656 143.73460159 -97.56624308 143.13901212 -97.60302734 139.76025391 C-97.61578705 138.96156891 -97.62854675 138.16288391 -97.64169312 137.33999634 C-97.64391876 136.47756317 -97.64614441 135.61513 -97.6484375 134.7265625 C-97.6550943 133.82940521 -97.6617511 132.93224792 -97.66860962 132.00790405 C-97.67874337 130.10310921 -97.68342642 128.19827881 -97.68310547 126.29345703 C-97.68743183 123.42027414 -97.7236113 120.54868743 -97.76171875 117.67578125 C-97.87737087 98.94309346 -93.78507815 85.08202653 -80.75 71.078125 C-75.52892865 66.09133249 -69.49249398 62.4207411 -63.3125 58.75 C-63.80621094 57.78578125 -64.29992187 56.8215625 -64.80859375 55.828125 C-65.45594237 54.55219148 -66.10306599 53.27614379 -66.75 52 C-67.07548828 51.36578125 -67.40097656 50.7315625 -67.73632812 50.078125 C-72.67804427 40.29658376 -72.90603177 28.72024444 -69.6875 18.25 C-67.68768321 13.04199657 -65.02007523 8.89433147 -61.3125 4.75 C-60.549375 3.88375 -59.78625 3.0175 -59 2.125 C-41.61328065 -13.24000779 -18.852517 -13.97772369 0 0 Z " fill="#020201" transform="translate(98.3125,16.25)"/>
<path d="M0 0 C2.03215746 1.44655483 3.87934424 2.97821574 5.734375 4.64453125 C6.35054688 5.16917969 6.96671875 5.69382813 7.6015625 6.234375 C15.05020344 13.02766341 19.1770099 22.40333832 20.0703125 32.40625 C20.1868212 44.11537389 18.11319579 53.62067001 11.734375 63.64453125 C12.31703125 63.87785156 12.8996875 64.11117187 13.5 64.3515625 C27.44737586 70.55770616 36.86877196 81.70794376 43.046875 95.45703125 C46.96357209 106.34619778 47.07675608 118.13757946 47.046875 129.58203125 C47.06298828 130.84337891 47.07910156 132.10472656 47.09570312 133.40429688 C47.0996005 140.79761792 46.99841648 146.56447939 42.234375 152.51953125 C39.24995181 154.75784864 36.39409014 154.77291173 32.81362915 154.78497314 C31.79861832 154.79068329 30.78360748 154.79639343 29.73783875 154.80227661 C28.62504044 154.80339447 27.51224213 154.80451233 26.36572266 154.80566406 C24.60683968 154.81311142 24.60683968 154.81311142 22.81242371 154.82070923 C19.59542019 154.8328168 16.37845302 154.84027562 13.16143084 154.84471989 C11.15108873 154.84765238 9.1407523 154.85175751 7.13041306 154.85622406 C0.83904568 154.86989513 -5.45230869 154.87956393 -11.74368989 154.88342595 C-19.00359679 154.88790717 -26.26331545 154.90545946 -33.52316511 154.93442655 C-39.13684931 154.95604718 -44.75048056 154.96613042 -50.36420596 154.96746707 C-53.71619889 154.96851475 -57.06801478 154.97441454 -60.41996384 154.99228668 C-64.1595163 155.00930527 -67.89860832 155.00747697 -71.63818359 155.00097656 C-72.74693344 155.01019135 -73.85568329 155.01940613 -74.99803162 155.02890015 C-81.45092605 154.9936901 -85.16001561 154.4579679 -90.05102539 150.02709961 C-91.9538944 146.29441645 -91.71336886 142.65558457 -91.69921875 138.5234375 C-91.7044606 137.62769516 -91.70970245 136.73195282 -91.71510315 135.80906677 C-91.72152455 133.91023797 -91.72018481 132.0113694 -91.71166992 130.11254883 C-91.70324581 127.24810888 -91.73177833 124.38572292 -91.76367188 121.52148438 C-91.83550959 102.93740243 -87.75591687 88.96527112 -74.84375 75.04296875 C-70.41614497 70.92395437 -65.40643312 67.79385514 -60.265625 64.64453125 C-58.780625 63.65453125 -58.780625 63.65453125 -57.265625 62.64453125 C-57.75933594 61.6803125 -58.25304688 60.71609375 -58.76171875 59.72265625 C-59.40906737 58.44672273 -60.05619099 57.17067504 -60.703125 55.89453125 C-61.02861328 55.2603125 -61.35410156 54.62609375 -61.68945312 53.97265625 C-66.61427551 44.2245542 -66.8515643 32.6614643 -63.703125 22.20703125 C-59.50005365 11.3232886 -50.87789238 2.52705005 -40.41796875 -2.53125 C-27.44165344 -7.5004016 -12.09425995 -7.2357038 0 0 Z " fill="#010000" transform="translate(92.265625,192.35546875)"/>
<path d="M0 0 C0.70431152 0.19867676 1.40862305 0.39735352 2.13427734 0.60205078 C30.82620314 8.90548042 54.50444524 26.5822412 69.2265625 52.88671875 C82.15093518 77.05859588 86.68633886 106.38299618 79 133 C69.3578122 162.68242679 51.32948333 186.90003568 23.25 201.25 C-3.22926016 214.24826157 -31.73984483 217.02832313 -60 208 C-69.05705562 204.82486927 -77.3104275 200.52687032 -85.3515625 195.28515625 C-88.58013816 193.71848753 -90.43757638 193.63008151 -94 194 C-96.54594944 195.60543367 -96.54594944 195.60543367 -98.79264832 197.92176819 C-99.65613073 198.74804781 -100.51961315 199.57432743 -101.4092617 200.42564583 C-102.26420534 201.2751827 -103.11914898 202.12471958 -104 203 C-104.76643641 203.7465579 -105.53287281 204.49311581 -106.32253456 205.26229668 C-108.67439157 207.57276259 -110.99848946 209.90841838 -113.31762695 212.25170898 C-114.18887711 213.12763199 -115.06012726 214.00355499 -115.95777893 214.90602112 C-117.83031039 216.78897502 -119.70192288 218.67279292 -121.57210732 220.55807304 C-124.53199631 223.54129165 -127.49699238 226.51940011 -130.4629364 229.49659729 C-138.8883117 237.95519787 -147.30924365 246.41818976 -155.7199707 254.89135742 C-160.38218041 259.58809317 -165.04973414 264.2794485 -169.72329491 268.96489006 C-172.67169462 271.9213701 -175.61341626 274.88428717 -178.55035269 277.85215271 C-180.80394073 280.12551409 -183.06738414 282.38902741 -185.3293457 284.65405273 C-186.54116516 285.8844075 -186.54116516 285.8844075 -187.77746582 287.13961792 C-188.52716141 287.88663467 -189.27685699 288.63365143 -190.04927063 289.40330505 C-191.01841133 290.37854205 -191.01841133 290.37854205 -192.00713062 291.3734808 C-195.28973955 294.05264608 -198.25934093 294.91920083 -202.4375 295.375 C-207.52689174 294.83927455 -210.47058172 292.74037253 -213.8125 288.9375 C-216.23959201 284.97750777 -216.38595477 281.55426632 -216 277 C-212.68116585 270.92328814 -207.63176219 266.37206343 -202.74926758 261.53808594 C-201.80406148 260.59508383 -200.85930512 259.65163076 -199.91496277 258.70776367 C-197.88915951 256.68488231 -195.86025427 254.66518448 -193.82883644 252.64794159 C-190.6180856 249.45952805 -187.41450333 246.2639758 -184.21183777 243.06744385 C-179.14892964 238.01589385 -174.0813658 232.96904437 -169.01173657 227.92424035 C-159.92185121 218.87878196 -150.83763794 209.82763531 -141.75857085 200.77131867 C-138.57184992 197.59301472 -135.38234279 194.41754081 -132.19058001 191.24430037 C-130.68645703 189.74824411 -129.18344892 188.2510785 -127.68092346 186.75341797 C-125.84662953 184.92517197 -124.010506 183.09875918 -122.17227173 181.2744751 C-121.36891891 180.47263794 -120.5655661 179.67080078 -119.73786926 178.84466553 C-119.03604932 178.14636501 -118.33422937 177.4480645 -117.61114216 176.72860336 C-115.54926297 174.51640174 -115.0450104 173.3682176 -114.67578125 170.34765625 C-115.10442448 165.9217858 -116.88293982 163.16569169 -119.1875 159.4375 C-133.70864191 134.74617321 -137.9910482 105.82657373 -131 78 C-123.40357531 49.57095608 -104.72606182 25.91077302 -79.51953125 10.9453125 C-55.40772973 -2.59942955 -26.9077259 -7.59376716 0 0 Z M-74 23 C-74.86882812 23.5053125 -75.73765625 24.010625 -76.6328125 24.53125 C-82.67676998 28.32188535 -87.82968474 33.11357892 -93 38 C-93.64066406 38.5878125 -94.28132813 39.175625 -94.94140625 39.78125 C-107.16338178 51.3743543 -114.99058316 67.81461727 -119 84 C-119.33644531 85.31291016 -119.33644531 85.31291016 -119.6796875 86.65234375 C-124.70061489 109.52163633 -119.15408684 135.96544476 -106.625 155.5625 C-102.62774323 161.5378864 -97.99543952 166.84612303 -93 172 C-92.4740625 172.59941406 -91.948125 173.19882812 -91.40625 173.81640625 C-76.71869024 189.96522833 -53.31622597 198.95681454 -31.9296875 200.4140625 C-15.11810157 201.10365555 1.94567731 197.62605835 17 190 C17.95519531 189.52175781 18.91039062 189.04351562 19.89453125 188.55078125 C42.90045147 176.09803544 58.05710045 155.28484651 65.9921875 130.73046875 C73.08865689 104.46252974 68.8365781 79.11321632 55.58984375 55.5859375 C53.04120292 51.44048239 50.1327128 47.7164481 47 44 C46.36707031 43.20980469 45.73414063 42.41960937 45.08203125 41.60546875 C30.24819169 23.93288316 6.94039275 12.08777697 -16 10 C-37.02140776 8.51877951 -55.76561066 12.38783808 -74 23 Z " fill="#62D8F8" transform="translate(414,195)"/>
<path d="M0 0 C1.27617187 0.90878906 1.27617187 0.90878906 2.578125 1.8359375 C17.18999087 12.81724774 26.57680666 28.43860861 31 46 C31.35449219 47.23234375 31.70898438 48.4646875 32.07421875 49.734375 C36.97158003 69.60218652 31.28094584 90.85059986 21 108 C18.80682197 111.13372222 16.51083611 114.11520958 14 117 C11.63903872 114.75281999 9.70123427 112.35772431 7.75 109.75 C1.12800851 101.24191114 -5.4581949 96.15476827 -15 91 C-13.7125785 87.73814732 -12.36723628 84.51445691 -10.9375 81.3125 C-10.59589844 80.54550781 -10.25429688 79.77851563 -9.90234375 78.98828125 C-9.29364155 77.64702836 -8.65870747 76.31741495 -8 75 C-7.06757261 64.96836741 -6.49724147 53.77821004 -12 45 C-12.474375 44.2265625 -12.94875 43.453125 -13.4375 42.65625 C-17.815409 36.34195817 -23.3033941 32.61793203 -30 29 C-30.62261719 28.63777344 -31.24523437 28.27554688 -31.88671875 27.90234375 C-40.13038016 23.91945116 -52.55140247 24.78400516 -61.0625 27.625 C-71.42990189 32.11074424 -79.43168765 39.95189923 -84.2734375 50.140625 C-87.86397712 59.3293178 -87.4286968 71.79093536 -83.6875 80.8125 C-81.99382371 84.33717768 -80.04112354 87.66596535 -78 91 C-78.67804688 91.32871094 -79.35609375 91.65742188 -80.0546875 91.99609375 C-91.43265719 97.81115028 -100.23413378 105.46826756 -106 117 C-110.00680004 115.66439999 -111.22838138 113.10840617 -113.375 109.6875 C-113.77275635 109.06101562 -114.1705127 108.43453125 -114.58032227 107.7890625 C-125.71108405 89.80912505 -130.07892366 68.33575554 -125.5 47.5625 C-120.43688081 26.82309394 -107.36975187 8.39324382 -89.29003906 -2.89575195 C-61.23067526 -19.84797081 -26.83185629 -19.58225536 0 0 Z " fill="#6F6B63" transform="translate(435,235)"/>
<path d="M0 0 C6.45825877 1.75139221 13.40333656 1.81206576 19.875 0 C28.33821934 -2.21986081 34.9742056 -1.10565906 42.6875 3 C52.15090606 8.9785184 59.0777115 17.36470915 62.6875 28 C64.97645527 39.44477636 63.6875 51.3285724 63.6875 63 C28.3775 63 -6.9325 63 -43.3125 63 C-43.3125 23.68260038 -43.3125 23.68260038 -32.3125 11 C-23.34639698 2.27500227 -12.61185785 -3.80735331 0 0 Z " fill="#FB6170" transform="translate(59.3125,269)"/>
<path d="M0 0 C11.14277034 6.05243098 17.6302094 14.20454543 22 25.9375 C23.60346846 37.16177924 23 48.59926577 23 59.9375 C-12.31 59.9375 -47.62 59.9375 -84 59.9375 C-84 20.36421614 -84 20.36421614 -71.89453125 7.7421875 C-63.31787911 -0.25875133 -55.66147882 -3.43867674 -44 -3.0625 C-43.01 -2.7325 -42.02 -2.4025 -41 -2.0625 C-37.92071224 -1.83585772 -34.83678776 -1.87734202 -31.75 -1.875 C-30.49896484 -1.85663086 -30.49896484 -1.85663086 -29.22265625 -1.83789062 C-3.93334151 -1.77833965 -3.93334151 -1.77833965 0 0 Z " fill="#FDD44E" transform="translate(100,91.0625)"/>
<path d="M0 0 C12.21637852 5.59397945 18.84128335 13.56946771 24 25.83984375 C27.69082948 36.91233218 25 49.16841615 25 60.83984375 C-9.98 60.83984375 -44.96 60.83984375 -81 60.83984375 C-81 21.96844685 -81 21.96844685 -71 9.83984375 C-63.231688 2.53273024 -54.8523009 -2.25020674 -44.09765625 -2.29296875 C-42 -2.16015625 -42 -2.16015625 -39.83984375 -1.6640625 C-35.72603163 -0.93410134 -31.66986154 -0.9758491 -27.5 -0.97265625 C-26.65824219 -0.96041016 -25.81648438 -0.94816406 -24.94921875 -0.93554688 C-2.28072534 -0.88199925 -2.28072534 -0.88199925 0 0 Z " fill="#6BE659" transform="translate(257,90.16015625)"/>
<path d="M0 0 C1.518675 0.09230479 3.04102395 0.1306756 4.5625 0.1328125 C5.88121094 0.13474609 5.88121094 0.13474609 7.2265625 0.13671875 C8.14179688 0.13285156 9.05703125 0.12898438 10 0.125 C10.91523438 0.12886719 11.83046875 0.13273437 12.7734375 0.13671875 C13.65257812 0.13542969 14.53171875 0.13414063 15.4375 0.1328125 C16.24058594 0.13168457 17.04367187 0.13055664 17.87109375 0.12939453 C20.18884465 0.0804355 20.18884465 0.0804355 23 -1 C32.74455906 -2.21557894 41.05277897 1.73523101 48.8984375 7.23828125 C56.22885555 13.38329712 61.13942521 21.69712603 63 31 C63 41.23 63 51.46 63 62 C28.02 62 -6.96 62 -43 62 C-43 22.19767442 -43 22.19767442 -31.3984375 10.19140625 C-22.68147491 2.22688506 -11.97741611 -3.99247204 0 0 Z " fill="#42A1FE" transform="translate(378,89)"/>
<path d="M0 0 C6.5496254 1.71793453 13.50447351 1.81089489 20.0625 0 C29.12543294 -2.41678212 36.76626907 -0.43509473 44.84765625 4.15625 C46.20386384 5.05397606 47.51558988 6.01855451 48.8125 7 C48.7403125 7.59941406 48.668125 8.19882812 48.59375 8.81640625 C47.02100108 24.17255199 46.70921653 39.72358256 50.15625 54.8203125 C50.8125 58 50.8125 58 50.8125 63 C19.7925 63 -11.2275 63 -43.1875 63 C-43.1875 23.45146004 -43.1875 23.45146004 -30.5 9.75 C-22.31305904 1.9881502 -11.33058791 -3.55469425 0 0 Z " fill="#429FFB" transform="translate(218.1875,269)"/>
<path d="M0 0 C6.59445746 2.19253061 14.76424983 1.89721099 21.4296875 -0.046875 C29.02072291 -2.01007381 36.32135299 0.32347934 43.0546875 4.015625 C49.33022058 8.6343433 56.07568939 14.62878806 59.0546875 22.015625 C58.97265625 24.59375 58.97265625 24.59375 58.0546875 27.015625 C55.07271417 29.568096 51.53583748 31.22302195 48.0546875 33.015625 C46.724375 33.70205078 46.724375 33.70205078 45.3671875 34.40234375 C27.51776852 43.04167009 7.05336865 44.55528152 -11.9453125 39.015625 C-20.906063 35.8380539 -29.34631351 31.77819923 -36.9453125 26.015625 C-35.63704858 17.52677613 -29.90926625 11.22497673 -23.51171875 5.8125 C-16.52243866 0.91894012 -8.46151002 -2.82798478 0 0 Z " fill="#FCD24E" transform="translate(376.9453125,337.984375)"/>
<path d="M0 0 C7.39347381 3.76298667 12.82980285 8.91487415 16.3125 16.4375 C17.0625 18.8125 17.0625 18.8125 17.3125 21.4375 C17.37566406 22.09492188 17.43882813 22.75234375 17.50390625 23.4296875 C17.93373986 31.44400445 15.12831575 37.43715795 10.25 43.6875 C4.71460308 49.58877604 -2.24690785 52.64981323 -10.3125 53 C-18.49009305 52.55796794 -24.96105853 49.09694922 -30.890625 43.546875 C-35.9229907 37.63931527 -38.56835444 30.60723704 -38.1015625 22.84375 C-36.75854057 15.03901876 -32.55399385 8.66530299 -26.6875 3.4375 C-18.55846114 -1.7328078 -9.1799731 -3.73584992 0 0 Z " fill="#FADBC2" transform="translate(79.6875,203.5625)"/>
<path d="M0 0 C7.08032046 4.23150465 12.21170775 10.36881428 14.3203125 18.38671875 C15.83308395 27.19794892 13.19627594 34.05669898 8.3203125 41.38671875 C3.75745201 46.57225148 -1.71272805 50.00851937 -8.6328125 50.890625 C-17.62762399 51.17343493 -24.71617056 50.74295224 -31.6796875 44.38671875 C-36.98953275 38.77053628 -40.73752432 32.4246736 -41.1171875 24.57421875 C-40.82409831 16.84838783 -38.2483967 10.67709394 -32.9921875 5.01171875 C-23.52548242 -3.60071644 -11.75693837 -5.3870216 0 0 Z " fill="#FBDCC2" transform="translate(82.6796875,24.61328125)"/>
<path d="M0 0 C7.26810925 3.77941681 10.57207542 9.96446334 14.1484375 17.1171875 C15.03659026 25.84646035 14.42043779 32.93255455 9.1484375 40.1171875 C2.73708019 47.25987834 -3.52624858 51.0349314 -13.1015625 51.6796875 C-20.59124195 51.45051789 -27.15182479 48.2415723 -32.8359375 43.44140625 C-38.94787371 36.86048484 -40.39889338 29.82564785 -40.1328125 21.01171875 C-39.42456793 13.72270176 -36.47660498 7.86746944 -30.8515625 3.1171875 C-20.53862356 -3.71287294 -11.33492441 -5.1847446 0 0 Z " fill="#FBDCC2" transform="translate(241.8515625,204.8828125)"/>
<path d="M0 0 C6.88144033 4.63580068 11.21756084 9.81966664 13 18 C14.163122 27.36619293 12.29342552 34.05986172 7.125 41.8125 C2.08446582 47.00128519 -3.40509619 49.66322252 -10.5859375 50.3359375 C-20.55972449 50.43876005 -26.31648257 49.48083587 -33.75 42.875 C-39.06144706 37.15030534 -41.18527401 30.7331328 -41.5625 23 C-41.2637594 15.25266032 -38.43861535 8.92907025 -32.75 3.625 C-23.00460883 -3.76805537 -11.14815717 -5.88099943 0 0 Z " fill="#FBDDC3" transform="translate(402,25)"/>
<path d="M0 0 C5.97865068 3.85262188 9.71479272 9.32992917 12 16 C13.07146556 24.8084436 11.894332 32.86342539 6.45703125 40.03515625 C1.54439623 45.33001001 -3.29163362 48.64217517 -10.5625 49.34375 C-19.55670638 49.55789777 -25.82767258 48.96877143 -33.25 43.6875 C-39.64162009 37.441144 -42.26794297 31.07428307 -42.4375 22.1875 C-42.29763098 14.37128983 -40.43537 9.6725399 -35.1328125 4.00390625 C-24.81110963 -5.6551192 -12.34891618 -6.76985226 0 0 Z " fill="#FBDDC3" transform="translate(244,26)"/>
<path d="M0 0 C5.97432985 4.21358187 10.17279678 9.63309161 12.29296875 16.6171875 C13.17671804 24.19218142 11.23935333 31.48003609 6.78515625 37.734375 C1.11994927 43.87387838 -5.32934943 46.7745889 -13.64453125 47.1796875 C-20.69493054 46.91024549 -26.27547204 44.67149284 -31.5546875 39.97265625 C-37.82183395 33.15116761 -39.30838672 26.90152052 -39.046875 17.76953125 C-38.2378148 10.2648004 -34.61577931 5.75594284 -28.8359375 1.09375 C-19.90501213 -5.10054319 -9.43849948 -5.3119695 0 0 Z " fill="#FBDCC3" transform="translate(401.70703125,278.3828125)"/>
</svg>
